<svg xmlns="http://www.w3.org/2000/svg" version="1.1" xmlns:xlink="http://www.w3.org/1999/xlink" viewBox="0 0 10.45800263671875 11.504176236322357"><g transform="matrix(0.8571428571428571,0,0,0.8571428571428571,1.4940003766741072,8.252224173962276)"><rect width="13.247176675775481" height="13.247176675775481" x="-2.2660872392549285" y="-9.540413736322355" fill="#ffffff"></rect><g transform="matrix(1,0,0,1,0,0)" clip-path="url(#SvgjsClipPath25067)"><g clip-path="url(#SvgjsClipPath2506234e8781a-95a5-4271-94f3-5add4b195b31)"><path d=" M 6.0201534646309955 -4.8917140279619025 L 3.4929218683137613 -2.363796801803029 C 3.059278614303825 -1.8842384847695834 3.077752859689152 -1.148908318297182 3.5349304243094566 -0.6917307536768771 C 3.9921079889297393 -0.2345531890565944 4.727438155402141 -0.21607894367125624 5.2069964724355975 -0.6497221976811929 L 7.734228068752821 -3.1776394238400876 C 8.167871322762768 -3.657197740873533 8.14939707737743 -4.392527907345935 7.692219512757137 -4.849705471966239 C 7.2350419481368435 -5.306883036586521 6.499711781664441 -5.3253572819718595 6.0201534646309955 -4.8917140279619025 Z" fill="#a4cb6a" transform="matrix(1,0,0,1,0,0)" fill-rule="evenodd"></path></g><g clip-path="url(#SvgjsClipPath2506234e8781a-95a5-4271-94f3-5add4b195b31)"><path d=" M 5.222080328951863 -2.363796801803029 L 2.69484873263465 -4.8917140279619025 C 2.215290415601194 -5.3253572819718595 1.4799602491288026 -5.306883036586521 1.0227826845085093 -4.849705471966239 C 0.5656051198882156 -4.392527907345935 0.5471308745028778 -3.657197740873533 0.9807741285128245 -3.1776394238400876 L 3.5080057248300482 -0.6497221976811929 C 3.9875640418635157 -0.2160789436713202 4.722894208335875 -0.23455318905667966 5.180071772956147 -0.691730753676941 C 5.637249337576419 -1.1489083182972246 5.6557235829617785 -1.8842384847695834 5.222080328951874 -2.363796801803029 Z" fill="#64c6c4" transform="matrix(1,0,0,1,0,0)" fill-rule="evenodd"></path></g><g clip-path="url(#SvgjsClipPath2506234e8781a-95a5-4271-94f3-5add4b195b31)"><path d=" M 5.229622257210007 -2.3569405033865563 L 4.357501098632812 -3.229061661963719 L 3.485379940055618 -2.3569405033865563 C 3.2449553204997836 -2.134096405127914 3.1088754370811587 -1.820726929658333 3.110178353037963 -1.492913274928573 C 3.1114812689947566 -1.1650996201988129 3.2500478271010227 -0.852821744258363 3.492236238472112 -0.631895821798329 C 3.7200954993234094 -0.3970270417856092 4.03042013357679 -0.2600612563029383 4.357501098632812 -0.24999999999999822 C 4.854376385037654 -0.2547560600956702 5.300340600299062 -0.5559161478944121 5.490383243158426 -1.0150364635443951 C 5.68042588601779 -1.4741567791943995 5.577776136411241 -2.0024034154187813 5.229622257210007 -2.3569405033865563 Z" fill="#212245" transform="matrix(1,0,0,1,0,0)" fill-rule="evenodd"></path></g><g clip-path="url(#SvgjsClipPath2506234e8781a-95a5-4271-94f3-5add4b195b31)"><path d=" M 5.444224397646061 -5.173507892879525 L 4.357501098632812 -4.083356444658061 L 3.270777799619574 -5.170079743671288 C 2.9715264244855 -5.4476250944885845 2.802142097417141 -5.837781048168154 2.8037053629545516 -6.245923625560897 C 2.8052686284919734 -6.654066202953661 2.977636688452165 -7.042913178451175 3.279005357719367 -7.318158037556769 C 3.5632265239854863 -7.610580993631041 3.949911838740284 -7.781184686218367 4.357501098632823 -7.793985147660995 C 4.974724393162509 -7.78658903095803 5.5281762293291505 -7.412137778062396 5.764633148496155 -6.841955856891231 C 6.00109006766316 -6.271773935720066 5.87506720328517 -5.6155415733625516 5.444224397646061 -5.1735078928795035 Z" fill="#212245" transform="matrix(1,0,0,1,0,0)" fill-rule="evenodd"></path></g></g><g><path d=" M 0.552 1.0799999999999998 Q 0.4485 1.0799999999999998 0.35475 1.0432499999999998 Q 0.261 1.0064999999999997 0.189 0.9352499999999998 Q 0.117 0.8639999999999998 0.07575 0.7627499999999998 Q 0.0345 0.6614999999999998 0.0345 0.5309999999999998 Q 0.0345 0.41849999999999976 0.0765 0.3224999999999998 Q 0.11850000000000001 0.2264999999999998 0.19275 0.15374999999999972 Q 0.267 0.08099999999999974 0.366 0.04049999999999976 Q 0.465 -2.220446049250313e-16 0.5805 -2.220446049250313e-16 Q 0.7245 -2.220446049250313e-16 0.8415 0.062249999999999694 Q 0.9585 0.12449999999999972 1.0155 0.23249999999999982 L 0.798 0.3989999999999998 Q 0.7665000000000001 0.33599999999999974 0.7035 0.29774999999999974 Q 0.6405 0.25949999999999973 0.5700000000000001 0.25949999999999973 Q 0.5175 0.25949999999999973 0.47400000000000003 0.28049999999999975 Q 0.4305 0.30149999999999977 0.39825 0.33899999999999975 Q 0.366 0.3764999999999997 0.34875 0.4282499999999998 Q 0.3315 0.47999999999999976 0.3315 0.5414999999999998 Q 0.3315 0.6044999999999998 0.34950000000000003 0.6554999999999997 Q 0.3675 0.7064999999999998 0.39975 0.7432499999999997 Q 0.432 0.7799999999999998 0.47700000000000004 0.8002499999999998 Q 0.522 0.8204999999999998 0.5775 0.8204999999999998 Q 0.648 0.8204999999999998 0.7125 0.7852499999999998 Q 0.777 0.7499999999999998 0.8295 0.6854999999999998 L 0.8295 0.9704999999999998 Q 0.7095 1.0799999999999998 0.552 1.0799999999999998 M 0.8145 0.7154999999999998 L 0.618 0.7154999999999998 L 0.618 0.5054999999999997 L 1.056 0.5054999999999997 L 1.056 1.0724999999999998 L 0.8145 1.0724999999999998 L 0.8145 0.7154999999999998 M 1.2045205078124999 1.0724999999999998 L 1.2045205078124999 0.00749999999999984 L 1.6935205078125 0.00749999999999984 Q 1.7715205078124998 0.00749999999999984 1.8375205078125 0.0389999999999997 Q 1.9035205078125 0.07049999999999979 1.9515205078125 0.1237499999999998 Q 1.9995205078125 0.1769999999999997 2.0257705078125 0.24299999999999977 Q 2.0520205078125002 0.3089999999999997 2.0520205078125002 0.3764999999999997 Q 2.0520205078125002 0.4379999999999997 2.0340205078125 0.4949999999999998 Q 2.0160205078124998 0.5519999999999998 1.9815205078125 0.5992499999999998 Q 1.9470205078124998 0.6464999999999999 1.8990205078125 0.6809999999999998 L 2.1240205078125003 1.0724999999999998 L 1.8030205078125001 1.0724999999999998 L 1.6155205078125001 0.7454999999999998 L 1.4970205078125 0.7454999999999998 L 1.4970205078125 1.0724999999999998 L 1.2045205078124999 1.0724999999999998 M 1.4970205078125 0.4904999999999998 L 1.6815205078125 0.4904999999999998 Q 1.6995205078125 0.4904999999999998 1.7160205078125 0.47699999999999976 Q 1.7325205078125 0.4634999999999998 1.7437705078125 0.4379999999999997 Q 1.7550205078125 0.41249999999999976 1.7550205078125 0.3764999999999997 Q 1.7550205078125 0.33899999999999975 1.7422705078125 0.3142499999999998 Q 1.7295205078125 0.28949999999999976 1.7107705078125 0.2759999999999998 Q 1.6920205078125 0.26249999999999973 1.6740205078125001 0.26249999999999973 L 1.4970205078125 0.26249999999999973 L 1.4970205078125 0.4904999999999998 M 2.6880439453125 1.0814999999999997 Q 2.5665439453125 1.0814999999999997 2.4675439453125 1.0357499999999997 Q 2.3685439453125 0.9899999999999998 2.2972939453125 0.9127499999999997 Q 2.2260439453125 0.8354999999999998 2.1877939453125 0.7387499999999998 Q 2.1495439453125 0.6419999999999998 2.1495439453125 0.5384999999999998 Q 2.1495439453125 0.43199999999999983 2.1900439453125 0.33599999999999974 Q 2.2305439453124998 0.23999999999999977 2.3032939453125 0.16424999999999979 Q 2.3760439453125 0.0884999999999998 2.4757939453124997 0.04499999999999971 Q 2.5755439453125 0.0014999999999998348 2.6940439453125 0.0014999999999998348 Q 2.8155439453125 0.0014999999999998348 2.9145439453125 0.04724999999999979 Q 3.0135439453124997 0.09299999999999975 3.0840439453124997 0.17099999999999982 Q 3.1545439453124997 0.24899999999999978 3.1927939453125 0.3457499999999998 Q 3.2310439453125 0.4424999999999998 3.2310439453125 0.5444999999999998 Q 3.2310439453125 0.6494999999999997 3.1912939453125 0.7454999999999998 Q 3.1515439453124996 0.8414999999999998 3.0787939453125 0.9172499999999998 Q 3.0060439453125 0.9929999999999998 2.9070439453125 1.0372499999999998 Q 2.8080439453125 1.0814999999999997 2.6880439453125 1.0814999999999997 M 2.4465439453125 0.5414999999999998 Q 2.4465439453125 0.5954999999999997 2.4615439453125 0.6457499999999998 Q 2.4765439453124998 0.6959999999999997 2.5065439453125 0.7357499999999998 Q 2.5365439453125 0.7754999999999999 2.5822939453125 0.7987499999999998 Q 2.6280439453125 0.8219999999999998 2.6910439453125 0.8219999999999998 Q 2.7540439453125 0.8219999999999998 2.8005439453125 0.7979999999999998 Q 2.8470439453125 0.7739999999999998 2.8762939453125 0.7327499999999998 Q 2.9055439453125 0.6914999999999998 2.9197939453124997 0.6412499999999998 Q 2.9340439453125 0.5909999999999997 2.9340439453125 0.5384999999999998 Q 2.9340439453125 0.4844999999999998 2.9190439453124997 0.4349999999999997 Q 2.9040439453125 0.38549999999999973 2.8740439453124997 0.3457499999999998 Q 2.8440439453125 0.3059999999999997 2.7975439453125 0.28349999999999975 Q 2.7510439453125 0.2609999999999998 2.6895439453125 0.2609999999999998 Q 2.6265439453125 0.2609999999999998 2.5807939453124997 0.2849999999999998 Q 2.5350439453124998 0.3089999999999997 2.5050439453125 0.3487499999999998 Q 2.4750439453124997 0.38849999999999973 2.4607939453125 0.43874999999999975 Q 2.4465439453125 0.48899999999999977 2.4465439453125 0.5414999999999998 M 3.651078369140625 0.00749999999999984 L 3.9195783691406247 0.00749999999999984 L 4.017078369140624 0.33599999999999974 L 4.116078369140625 0.00749999999999984 L 4.384578369140625 0.00749999999999984 L 4.204578369140624 0.5159999999999998 L 4.281078369140625 0.7334999999999998 L 4.5105783691406245 0.00749999999999984 L 4.828578369140624 0.00749999999999984 L 4.426578369140625 1.0724999999999998 L 4.173078369140625 1.0724999999999998 L 4.017078369140624 0.6914999999999998 L 3.862578369140625 1.0724999999999998 L 3.6090783691406245 1.0724999999999998 L 3.207078369140625 0.00749999999999984 L 3.5235783691406244 0.00749999999999984 L 3.7545783691406247 0.7334999999999998 L 3.8280783691406244 0.5159999999999998 L 3.651078369140625 0.00749999999999984 M 4.806065917968749 0.5309999999999998 Q 4.806065917968749 0.4334999999999998 4.842815917968749 0.3397499999999998 Q 4.8795659179687485 0.24599999999999977 4.9500659179687485 0.16949999999999976 Q 5.0205659179687485 0.09299999999999975 5.121815917968749 0.04724999999999979 Q 5.223065917968749 0.0014999999999998348 5.350565917968749 0.0014999999999998348 Q 5.503565917968749 0.0014999999999998348 5.617565917968749 0.06524999999999981 Q 5.731565917968749 0.12899999999999978 5.787065917968749 0.23399999999999976 L 5.563565917968749 0.3929999999999998 Q 5.544065917968749 0.3404999999999998 5.507315917968749 0.3119999999999997 Q 5.470565917968749 0.28349999999999975 5.427815917968749 0.27224999999999977 Q 5.385065917968749 0.2609999999999998 5.344565917968749 0.2609999999999998 Q 5.281565917968749 0.2609999999999998 5.235815917968749 0.2857499999999997 Q 5.190065917968749 0.3104999999999998 5.1608159179687485 0.35099999999999976 Q 5.131565917968749 0.39149999999999974 5.117315917968749 0.4409999999999997 Q 5.103065917968749 0.4904999999999998 5.103065917968749 0.5399999999999998 Q 5.103065917968749 0.5954999999999997 5.119565917968749 0.6464999999999999 Q 5.1360659179687485 0.6974999999999998 5.167565917968749 0.7372499999999997 Q 5.199065917968749 0.7769999999999998 5.244815917968749 0.7994999999999998 Q 5.290565917968749 0.8219999999999998 5.347565917968749 0.8219999999999998 Q 5.388065917968749 0.8219999999999998 5.430065917968749 0.8092499999999998 Q 5.472065917968749 0.7964999999999998 5.506565917968749 0.7679999999999998 Q 5.541065917968749 0.7394999999999998 5.5590659179687485 0.6914999999999998 L 5.797565917968749 0.8339999999999997 Q 5.766065917968749 0.9119999999999998 5.692565917968749 0.9674999999999998 Q 5.619065917968749 1.0229999999999997 5.526065917968749 1.0522499999999997 Q 5.433065917968749 1.0814999999999997 5.341565917968749 1.0814999999999997 Q 5.223065917968749 1.0814999999999997 5.124815917968749 1.03425 Q 5.026565917968749 0.9869999999999998 4.955315917968749 0.9082499999999998 Q 4.884065917968749 0.8294999999999998 4.845065917968749 0.7312499999999997 Q 4.806065917968749 0.6329999999999998 4.806065917968749 0.5309999999999998 M 6.135054931640624 0.00749999999999984 L 6.462054931640624 0.00749999999999984 L 6.801054931640624 1.0724999999999998 L 6.504054931640624 1.0724999999999998 L 6.439554931640624 0.8639999999999998 L 6.156054931640624 0.8639999999999998 L 6.093054931640624 1.0724999999999998 L 5.794554931640624 1.0724999999999998 L 6.135054931640624 0.00749999999999984 M 6.393054931640624 0.6689999999999998 L 6.298554931640624 0.2939999999999998 L 6.199554931640624 0.6689999999999998 L 6.393054931640624 0.6689999999999998 M 6.894043212890624 1.0724999999999998 L 6.894043212890624 0.00749999999999984 L 7.383043212890624 0.00749999999999984 Q 7.461043212890624 0.00749999999999984 7.527043212890624 0.0389999999999997 Q 7.593043212890624 0.07049999999999979 7.641043212890624 0.1237499999999998 Q 7.689043212890624 0.1769999999999997 7.715293212890624 0.24299999999999977 Q 7.741543212890624 0.3089999999999997 7.741543212890624 0.3764999999999997 Q 7.741543212890624 0.4379999999999997 7.7235432128906245 0.4949999999999998 Q 7.705543212890625 0.5519999999999998 7.671043212890624 0.5992499999999998 Q 7.636543212890624 0.6464999999999999 7.588543212890624 0.6809999999999998 L 7.813543212890624 1.0724999999999998 L 7.492543212890625 1.0724999999999998 L 7.305043212890625 0.7454999999999998 L 7.186543212890625 0.7454999999999998 L 7.186543212890625 1.0724999999999998 L 6.894043212890624 1.0724999999999998 M 7.186543212890625 0.4904999999999998 L 7.3710432128906245 0.4904999999999998 Q 7.389043212890624 0.4904999999999998 7.405543212890624 0.47699999999999976 Q 7.422043212890625 0.4634999999999998 7.433293212890624 0.4379999999999997 Q 7.444543212890625 0.41249999999999976 7.444543212890625 0.3764999999999997 Q 7.444543212890625 0.33899999999999975 7.431793212890624 0.3142499999999998 Q 7.4190432128906245 0.28949999999999976 7.400293212890624 0.2759999999999998 Q 7.381543212890624 0.26249999999999973 7.363543212890624 0.26249999999999973 L 7.186543212890625 0.26249999999999973 L 7.186543212890625 0.4904999999999998 M 8.67002490234375 0.8174999999999998 L 8.67002490234375 1.0724999999999998 L 7.911024902343749 1.0724999999999998 L 7.911024902343749 0.00749999999999984 L 8.65652490234375 0.00749999999999984 L 8.65652490234375 0.26249999999999973 L 8.20352490234375 0.26249999999999973 L 8.20352490234375 0.41249999999999976 L 8.59052490234375 0.41249999999999976 L 8.59052490234375 0.6494999999999997 L 8.20352490234375 0.6494999999999997 L 8.20352490234375 0.8174999999999998 L 8.67002490234375 0.8174999999999998" fill="#212245" fill-rule="nonzero"></path></g><g><path d=" M 2.9787936401367183 1.9637624999999999 Q 2.9255436401367185 1.9637624999999999 2.879793640136718 1.9408874999999999 Q 2.834043640136718 1.9180125 2.800293640136718 1.8790125 Q 2.7665436401367183 1.8400124999999998 2.7481686401367185 1.7920125 Q 2.729793640136718 1.7440125 2.729793640136718 1.6930125 Q 2.729793640136718 1.6390125 2.7481686401367185 1.5906375 Q 2.7665436401367183 1.5422624999999999 2.799543640136718 1.5047625 Q 2.8325436401367186 1.4672625 2.8775436401367185 1.4455125 Q 2.9225436401367184 1.4237625 2.975793640136718 1.4237625 Q 3.0545436401367185 1.4237625 3.104043640136718 1.4560125 Q 3.1535436401367183 1.4882624999999998 3.1790436401367184 1.5400125 L 3.138543640136718 1.5670125 Q 3.1130436401367185 1.5175125 3.0702936401367182 1.4942625 Q 3.0275436401367184 1.4710125 2.975043640136718 1.4710125 Q 2.9307936401367183 1.4710125 2.8951686401367183 1.4897624999999999 Q 2.8595436401367182 1.5085125 2.834043640136718 1.5400125 Q 2.8085436401367185 1.5715124999999999 2.7954186401367185 1.6112625 Q 2.7822936401367184 1.6510125 2.7822936401367184 1.6937625 Q 2.7822936401367184 1.7387625 2.7972936401367186 1.7788875 Q 2.8122936401367182 1.8190125 2.8400436401367184 1.8501375 Q 2.8677936401367186 1.8812624999999998 2.904168640136718 1.8988874999999998 Q 2.940543640136718 1.9165124999999998 2.9825436401367185 1.9165124999999998 Q 3.0312936401367185 1.9165124999999998 3.0747936401367184 1.8921375 Q 3.1182936401367183 1.8677625 3.1580436401367185 1.8167624999999998 L 3.1580436401367185 1.8722625 Q 3.0822936401367182 1.9637624999999999 2.9787936401367183 1.9637624999999999 M 3.1497936401367186 1.7387625 L 3.0312936401367185 1.7387625 L 3.0312936401367185 1.6982625 L 3.1940436401367185 1.6982625 L 3.1940436401367185 1.9600125 L 3.1497936401367186 1.9600125 L 3.1497936401367186 1.7387625 M 3.3031712036132808 1.9600125 L 3.3031712036132808 1.4275125 L 3.355671203613281 1.4275125 L 3.355671203613281 1.9135125 L 3.663171203613281 1.9135125 L 3.663171203613281 1.9600125 L 3.3031712036132808 1.9600125 M 3.9343082885742184 1.9637624999999999 Q 3.8780582885742185 1.9637624999999999 3.8323082885742186 1.9412625 Q 3.7865582885742186 1.9187625 3.7535582885742182 1.8801375 Q 3.7205582885742183 1.8415124999999999 3.7025582885742185 1.7931374999999998 Q 3.6845582885742183 1.7447625 3.6845582885742183 1.6937625 Q 3.6845582885742183 1.6405124999999998 3.7033082885742186 1.5921375 Q 3.7220582885742184 1.5437625 3.7561832885742183 1.5058875 Q 3.7903082885742183 1.4680125 3.8360582885742183 1.4458875 Q 3.8818082885742182 1.4237625 3.9350582885742185 1.4237625 Q 3.9913082885742184 1.4237625 4.037058288574219 1.4470125 Q 4.082808288574219 1.4702625 4.115433288574218 1.5092625 Q 4.1480582885742185 1.5482624999999999 4.166058288574218 1.5962625 Q 4.184058288574218 1.6442625 4.184058288574218 1.6945124999999999 Q 4.184058288574218 1.7477624999999999 4.165308288574218 1.7961375 Q 4.1465582885742185 1.8445125 4.112808288574218 1.8823874999999999 Q 4.079058288574219 1.9202625 4.033308288574219 1.9420125 Q 3.9875582885742187 1.9637624999999999 3.9343082885742184 1.9637624999999999 M 3.7370582885742185 1.6937625 Q 3.7370582885742185 1.7372625 3.7513082885742186 1.7773875 Q 3.7655582885742183 1.8175124999999999 3.7918082885742184 1.8486375 Q 3.8180582885742185 1.8797625 3.8544332885742185 1.8981375 Q 3.8908082885742186 1.9165124999999998 3.9343082885742184 1.9165124999999998 Q 3.9800582885742184 1.9165124999999998 4.016433288574218 1.8973875 Q 4.0528082885742185 1.8782625 4.078683288574219 1.8463874999999998 Q 4.104558288574219 1.8145125 4.118058288574218 1.7747625 Q 4.131558288574219 1.7350124999999998 4.131558288574219 1.6937625 Q 4.131558288574219 1.6502625 4.117308288574218 1.6105125 Q 4.103058288574219 1.5707624999999998 4.0764332885742185 1.5392625 Q 4.049808288574218 1.5077625 4.013808288574219 1.4897624999999999 Q 3.9778082885742183 1.4717624999999999 3.9343082885742184 1.4717624999999999 Q 3.8893082885742185 1.4717624999999999 3.8529332885742185 1.4905125 Q 3.8165582885742184 1.5092625 3.7906832885742183 1.5411375 Q 3.7648082885742182 1.5730125 3.7509332885742186 1.6127624999999999 Q 3.7370582885742185 1.6525124999999998 3.7370582885742185 1.6937625 M 4.464182556152344 1.4312624999999999 L 4.513682556152343 1.4312624999999999 L 4.588682556152343 1.6202625 L 4.664432556152343 1.4312624999999999 L 4.7146825561523436 1.4312624999999999 L 4.621682556152344 1.6585125 L 4.723682556152344 1.8992624999999999 L 4.916432556152343 1.4275125 L 4.973432556152344 1.4275125 L 4.747682556152343 1.9600125 L 4.701182556152343 1.9600125 L 4.589432556152343 1.6967625 L 4.476932556152343 1.9600125 L 4.4311825561523435 1.9600125 L 4.206182556152344 1.4275125 L 4.262432556152343 1.4275125 L 4.4559325561523435 1.8992624999999999 L 4.557182556152344 1.6585125 L 4.464182556152344 1.4312624999999999 M 5.266322937011719 1.9637624999999999 Q 5.203322937011719 1.9637624999999999 5.159822937011718 1.9412625 Q 5.116322937011718 1.9187625 5.090822937011718 1.8808875 Q 5.065322937011718 1.8430125 5.0536979370117185 1.7950125 Q 5.042072937011718 1.7470124999999999 5.042072937011718 1.6960125 L 5.042072937011718 1.4275125 L 5.093822937011718 1.4275125 L 5.093822937011718 1.6960125 Q 5.093822937011718 1.7372625 5.102447937011719 1.7770124999999999 Q 5.111072937011719 1.8167624999999998 5.130572937011719 1.8482625 Q 5.150072937011719 1.8797625 5.183072937011718 1.8981375 Q 5.2160729370117185 1.9165124999999998 5.265572937011719 1.9165124999999998 Q 5.316572937011719 1.9165124999999998 5.349947937011718 1.8973875 Q 5.383322937011719 1.8782625 5.402447937011718 1.8467624999999999 Q 5.421572937011718 1.8152625 5.429822937011719 1.7758874999999998 Q 5.438072937011719 1.7365125 5.438072937011719 1.6960125 L 5.438072937011719 1.4275125 L 5.490572937011718 1.4275125 L 5.490572937011718 1.6960125 Q 5.490572937011718 1.7492625 5.478572937011719 1.7980125 Q 5.466572937011718 1.8467624999999999 5.439947937011718 1.8835125 Q 5.413322937011719 1.9202625 5.370572937011718 1.9420125 Q 5.327822937011718 1.9637624999999999 5.266322937011719 1.9637624999999999 M 5.616951599121093 1.9600125 L 5.616951599121093 1.4275125 L 5.837451599121094 1.4275125 Q 5.871951599121093 1.4275125 5.9008265991210935 1.4417624999999998 Q 5.929701599121094 1.4560125 5.950701599121094 1.4803875 Q 5.9717015991210936 1.5047625 5.983701599121094 1.5343874999999998 Q 5.995701599121094 1.5640125 5.995701599121094 1.5947624999999999 Q 5.995701599121094 1.6382625 5.976576599121094 1.6768874999999999 Q 5.957451599121094 1.7155125 5.9229515991210935 1.7395125 Q 5.888451599121094 1.7635125 5.841951599121094 1.7635125 L 5.669451599121094 1.7635125 L 5.669451599121094 1.9600125 L 5.616951599121093 1.9600125 M 5.669451599121094 1.7170125 L 5.839701599121094 1.7170125 Q 5.871201599121093 1.7170125 5.894451599121093 1.6997624999999998 Q 5.917701599121093 1.6825124999999999 5.930451599121094 1.6547625 Q 5.943201599121093 1.6270125 5.943201599121093 1.5947624999999999 Q 5.943201599121093 1.5617625 5.928201599121094 1.5340125 Q 5.913201599121093 1.5062625 5.888826599121094 1.4901375 Q 5.864451599121094 1.4740125 5.835201599121094 1.4740125 L 5.669451599121094 1.4740125 L 5.669451599121094 1.7170125" fill="#64c6c4" fill-rule="nonzero"></path></g></g><defs><clipPath id="SvgjsClipPath25067"><path d=" M 0.605734605130956 -7.797413296869231 h 7.503532987003712 v 7.547413296869231 h -7.503532987003712 Z"></path></clipPath><clipPath id="SvgjsClipPath2506234e8781a-95a5-4271-94f3-5add4b195b31"><path d=" M 0.6057346051309553 -7.797413296869231 L 8.109267592134668 -7.797413296869231 L 8.109267592134668 -0.25 L 0.6057346051309547 -0.25 Z"></path></clipPath></defs></svg>